<svg xmlns="http://www.w3.org/2000/svg" width="64" height="64" viewBox="0 0 64 64">
  <rect width="64" height="64" rx="14" fill="#ffffff" />
  <path d="M0 0h32v64H0z" fill="#08b15b" />
  <path d="M64 0v64H32V0z" fill="#f5f5f5" />
  <path d="M24 15c-8.8 0-16 7.2-16 16s7.2 16 16 16c3.5 0 6.8-1.1 9.4-3.1-3.7.5-7.6-.7-10.5-3.6-5.1-5.1-5.1-13.4 0-18.5 2.9-2.9 6.8-4.2 10.5-3.6A15.8 15.8 0 0 0 24 15z" fill="#ff3c4d" />
  <path d="m39.5 21.2 2.4 5 5.5.8-4 3.9 1 5.5-4.9-2.6-4.9 2.6 1-5.5-4-3.9 5.5-.8z" fill="#ff3c4d" />
</svg>
