<svg xmlns="http://www.w3.org/2000/svg" width="1200" height="630" viewBox="0 0 1200 630" role="img" aria-labelledby="title desc">
  <title id="title">SeatGeek FIFA World Cup Ticket Site Clone</title>
  <desc id="desc">World Cup 2026 tickets, schedules, stages, teams, and host cities.</desc>
  <defs>
    <linearGradient id="bg" x1="0" y1="0" x2="1" y2="1">
      <stop offset="0%" stop-color="#09090b" />
      <stop offset="100%" stop-color="#16161d" />
    </linearGradient>
    <linearGradient id="accent" x1="0" y1="0" x2="1" y2="1">
      <stop offset="0%" stop-color="#40d6ff" />
      <stop offset="100%" stop-color="#77f78b" />
    </linearGradient>
  </defs>
  <rect width="1200" height="630" fill="url(#bg)" />
  <g fill="none" stroke="rgba(255,255,255,0.05)" stroke-width="18">
    <path d="M45 80l70-40 70 40v80l-70 40-70-40z" />
    <path d="M185 160l70-40 70 40v80l-70 40-70-40z" />
    <path d="M930 70l70-40 70 40v80l-70 40-70-40z" />
    <path d="M1030 180l70-40 70 40v80l-70 40-70-40z" />
  </g>
  <rect x="88" y="86" width="204" height="204" rx="36" fill="#ffffff" />
  <text x="190" y="144" text-anchor="middle" font-family="Arial, Helvetica, sans-serif" font-size="34" font-weight="700" fill="#b88945">World Cup</text>
  <text x="190" y="212" text-anchor="middle" font-family="Arial, Helvetica, sans-serif" font-size="84" font-weight="900" fill="#1b1309">20</text>
  <text x="190" y="278" text-anchor="middle" font-family="Arial, Helvetica, sans-serif" font-size="84" font-weight="900" fill="#1b1309">26</text>
  <text x="350" y="236" font-family="Arial, Helvetica, sans-serif" font-size="58" font-weight="800" fill="#ffffff">SeatGeek FIFA World Cup</text>
  <text x="350" y="302" font-family="Arial, Helvetica, sans-serif" font-size="58" font-weight="800" fill="#ffffff">Ticket Site Clone</text>
  <text x="350" y="378" font-family="Arial, Helvetica, sans-serif" font-size="28" font-weight="500" fill="#b8b8c4">Tickets, stages, teams, host cities, and live match schedules</text>
  <rect x="350" y="422" width="316" height="64" rx="32" fill="#24242b" stroke="rgba(255,255,255,0.14)" />
  <circle cx="396" cy="454" r="17" fill="url(#accent)" />
  <text x="428" y="464" font-family="Arial, Helvetica, sans-serif" font-size="28" font-weight="700" fill="#ffffff">Every ticket protected</text>
</svg>
