<svg xmlns="http://www.w3.org/2000/svg" width="20" height="14" viewBox="0 0 20 14" fill="none">
  <rect width="20" height="14" rx="2.5" fill="#FFFFFF"/>
  <path d="M0 0H20V1.08H0V0ZM0 2.15H20V3.23H0V2.15ZM0 4.31H20V5.38H0V4.31ZM0 6.46H20V7.54H0V6.46ZM0 8.62H20V9.69H0V8.62ZM0 10.77H20V11.85H0V10.77ZM0 12.92H20V14H0V12.92Z" fill="#B22234"/>
  <rect width="9" height="7.54" rx="2.1" fill="#3C3B6E"/>
  <g fill="#FFFFFF">
    <circle cx="1.4" cy="1.3" r="0.42"/>
    <circle cx="3.2" cy="1.3" r="0.42"/>
    <circle cx="5" cy="1.3" r="0.42"/>
    <circle cx="6.8" cy="1.3" r="0.42"/>
    <circle cx="2.3" cy="2.5" r="0.42"/>
    <circle cx="4.1" cy="2.5" r="0.42"/>
    <circle cx="5.9" cy="2.5" r="0.42"/>
    <circle cx="7.7" cy="2.5" r="0.42"/>
    <circle cx="1.4" cy="3.7" r="0.42"/>
    <circle cx="3.2" cy="3.7" r="0.42"/>
    <circle cx="5" cy="3.7" r="0.42"/>
    <circle cx="6.8" cy="3.7" r="0.42"/>
    <circle cx="2.3" cy="4.9" r="0.42"/>
    <circle cx="4.1" cy="4.9" r="0.42"/>
    <circle cx="5.9" cy="4.9" r="0.42"/>
    <circle cx="7.7" cy="4.9" r="0.42"/>
    <circle cx="1.4" cy="6.1" r="0.42"/>
    <circle cx="3.2" cy="6.1" r="0.42"/>
    <circle cx="5" cy="6.1" r="0.42"/>
    <circle cx="6.8" cy="6.1" r="0.42"/>
  </g>
</svg>
